<?xml version="1.0" standalone="no"?>
<!DOCTYPE svg PUBLIC "-//W3C//DTD SVG 1.0//EN" "http://www.w3.org/TR/2001/REC-SVG-20010904/DTD/svg10.dtd">
<svg xmlns="http://www.w3.org/2000/svg" xmlns:xlink="http://www.w3.org/1999/xlink" id="body_1" width="36" height="36">

<defs>
    <linearGradient transform="matrix(1 0 0 1 0 0)"  id="1" x1="515.3436" y1="-6.724206" x2="514.0209" y2="516.7032">
        <stop stop-color="#5E7CBA" offset="0%"/>
        <stop stop-color="#4369B2" offset="100%"/>
    </linearGradient>
</defs>

<g transform="matrix(0.0703125 0 0 0.0703125 0 0)">
	<g transform="matrix(1 0 0 1 0 0)">
	</g>
    <path transform="matrix(1 0 0 1 0 0)"  d="M155.7644 59.28142C 155.7644 53.59976 160.3703 48.99386 166.052 48.99386L166.052 48.99386L449.8605 48.99386C 455.5422 48.99386 460.1481 53.59976 460.1481 59.28142L460.1481 59.28142L460.1481 464.5576C 460.1481 470.2393 455.5422 474.8452 449.8605 474.8452L449.8605 474.8452L166.052 474.8452C 160.3703 474.8452 155.7644 470.2393 155.7644 464.5576L155.7644 464.5576L155.7644 59.28142z" stroke="none" fill="#FFFFFF" fill-rule="nonzero" />
	<g transform="matrix(1 0 0 1 0 0)">
	</g>
    <path transform="matrix(1 0 0 1 0 0)"  d="M438.8596 -1.85489E-06L73.14042 -1.85489E-06C 32.75148 -1.85489E-06 0 32.76001 0 73.14042L0 73.14042L0 438.8596C 0 479.257 32.75148 512 73.14042 512L73.14042 512L438.8596 512C 479.2485 512.009 512 479.2656 512 438.8681L512 438.8681L512 73.14042C 512 32.76001 479.2485 -1.85489E-06 438.8596 -1.85489E-06zM419.0449 157.7157L337.7806 157.9802C 337.7806 157.9802 337.7806 175.8493 337.7806 201.9191L337.7806 201.9191L419.0449 201.9191L419.0449 283.1749L337.772 283.1749C 337.772 345.401 337.772 407.482 337.772 407.4991L337.772 407.4991L337.772 455.1159L256.4992 455.1159L256.4992 283.1834L202.6444 283.1834L202.6444 201.9191L256.4992 201.9191L256.4992 137.6535C 256.4992 104.1255 283.9258 76.69888 317.4538 76.69888L317.4538 76.69888L419.0449 76.69888L419.0449 157.7157z" stroke="none" fill="url(#1)" />
</g>
</svg>