<?xml version="1.0" standalone="no"?>
<!DOCTYPE svg PUBLIC "-//W3C//DTD SVG 1.0//EN" "http://www.w3.org/TR/2001/REC-SVG-20010904/DTD/svg10.dtd">
<svg xmlns="http://www.w3.org/2000/svg" xmlns:xlink="http://www.w3.org/1999/xlink" id="body_1" width="36" height="36">

<defs>
    <linearGradient transform="matrix(1 0 0 1 0 0)"  id="1" x1="-1.854407E-06" y1="256" x2="512" y2="256">
        <stop stop-color="#0C80B1" offset="0%"/>
        <stop stop-color="#11A7DF" offset="100%"/>
    </linearGradient>
</defs>

<g transform="matrix(0.0703125 0 0 0.0703125 0 0)">
	<g transform="matrix(1 0 0 1 0 0)">
	</g>
    <path transform="matrix(1 0 0 1 0 0)"  d="M73.125 -9.265145E-07C 32.73606 -9.265145E-07 0 32.73606 0 73.125L0 73.125L0 438.8438C 0 479.2327 32.73606 512 73.125 512L73.125 512L438.8438 512C 479.2327 512.009 512 479.2327 512 438.8438L512 438.8438L512 73.125C 512 32.72753 479.2327 -9.265145E-07 438.8438 -9.265145E-07L438.8438 -9.265145E-07L73.125 -9.265145E-07z" stroke="none" fill="url(#1)" />
	<g transform="matrix(1 0 0 1 0 0)">
	</g>
    <path transform="matrix(1 0 0 1 0 0)"  d="M277.2225 230.326L277.2225 229.555C 277.0595 229.8 276.8775 230.063 276.7325 230.326L276.7325 230.326L277.2225 230.326zM160.0815 424.212L84.08151 424.212L84.08151 197.212L160.0815 197.212L160.0815 424.212zM122.1445 166.212L121.6545 166.212C 96.30352 166.212 79.91852 148.816 79.91852 127.013C 79.91852 104.729 96.80352 87.788 122.6445 87.788C 148.4755 87.788 164.3805 104.712 164.8795 126.996C 164.8785 148.798 148.4745 166.212 122.1445 166.212zM432.0815 424.212L357.0815 424.212L357.0815 303.029C 357.0815 272.489 345.9815 251.657 318.6356 251.657C 297.7766 251.657 285.1935 265.702 279.7306 279.266C 277.7346 284.138 277.0826 290.898 277.0826 297.703L277.0826 297.703L277.0826 424.212L201.6985 424.212C 201.6985 424.212 202.6965 218.212 201.6985 197.212L201.6985 197.212L277.0815 197.212L277.0815 229.555C 287.0815 214.076 305.0465 192.028 345.1425 192.028C 394.8355 192.028 432.0815 224.51 432.0815 294.3L432.0815 294.3L432.0815 424.212z" stroke="none" fill="#FFFFFF" fill-rule="nonzero" />
</g>
</svg>