<?xml version="1.0" standalone="no"?>
<!DOCTYPE svg PUBLIC "-//W3C//DTD SVG 1.0//EN" "http://www.w3.org/TR/2001/REC-SVG-20010904/DTD/svg10.dtd">
<svg xmlns="http://www.w3.org/2000/svg" xmlns:xlink="http://www.w3.org/1999/xlink" id="body_1" width="36" height="36">

<defs>
    <linearGradient transform="matrix(1 0 0 1 0 0)"  id="1" x1="-1.854407E-06" y1="256" x2="512" y2="256">
        <stop stop-color="#0C80B1" offset="0%"/>
        <stop stop-color="#11A7DF" offset="100%"/>
    </linearGradient>
</defs>

<g transform="matrix(0.0703125 0 0 0.0703125 0 0)">
	<g transform="matrix(1 0 0 1 0 0)">
	</g>
    <path transform="matrix(1 0 0 1 0 0)"  d="M73.125 -1.391098E-06C 32.73606 -1.391098E-06 0 32.76731 0 73.15625L0 73.15625L0 438.875C 0 479.2639 32.73606 512 73.125 512L73.125 512L438.8438 512C 479.2326 512.009 512 479.2639 512 438.875L512 438.875L512 73.15625C 512 32.75878 479.2326 -1.391098E-06 438.8438 -1.391098E-06L438.8438 -1.391098E-06L73.125 -1.391098E-06z" stroke="none" fill="url(#1)" />
	<g transform="matrix(1 0 0 1 0 0)">
	</g>
    <path transform="matrix(1 0 0 1 0 0)"  d="M158.7031 53.45313C 144.8912 53.45313 133.184 58.34545 123.6094 68.10938C 114.0258 77.87105 109.2344 89.89726 109.2344 104.2344L109.2344 104.2344L109.2344 306.7969C 109.2344 348.6181 123.6172 384.3519 152.3906 414.0156C 181.1437 443.6996 215.7494 458.5469 256.2656 458.5469L256.2656 458.5469L353.5469 458.5469C 367.0703 458.5469 378.6212 453.5491 388.2656 443.6094C 397.9281 433.6877 402.7656 421.7193 402.7656 407.7969C 402.7656 393.8767 397.9281 381.9241 388.2656 371.9844C 378.6212 362.0221 367.0298 357.0469 353.5469 357.0469L353.5469 357.0469L256.2344 357.0469C 242.7199 357.0469 231.232 352.1523 221.7656 342.3906C 212.3015 332.5884 207.5804 320.7154 207.5781 306.7344L207.5781 306.7344L207.5781 256.4219L353.5469 256.4219C 367.05 256.4219 378.6212 251.4576 388.2656 241.5156C 397.9281 231.5759 402.7656 219.603 402.7656 205.7031C 402.7656 191.7627 397.9484 179.8304 388.2656 169.8906C 378.5806 159.9284 366.9547 154.9531 353.3906 154.9531L353.3906 154.9531L207.5781 154.9531L207.5781 104.2031C 207.5781 90.26272 202.798 78.33037 193.2031 68.39064C 183.6488 58.41034 172.1094 53.45314 158.7031 53.45314L158.7031 53.45314L158.7031 53.45313z" stroke="none" fill="#FFFFFF" fill-rule="nonzero" />
</g>
</svg>